<svg width="1024" height="500" viewBox="0 0 1024 500" fill="none" xmlns="http://www.w3.org/2000/svg">
  <!-- Background gradient -->
  <defs>
    <linearGradient id="bgGradient" x1="0%" y1="0%" x2="100%" y2="100%">
      <stop offset="0%" style="stop-color:#1e3a8a;stop-opacity:1" />
      <stop offset="50%" style="stop-color:#3b82f6;stop-opacity:1" />
      <stop offset="100%" style="stop-color:#dc2626;stop-opacity:1" />
    </linearGradient>
    <linearGradient id="cardGradient" x1="0%" y1="0%" x2="100%" y2="100%">
      <stop offset="0%" style="stop-color:#ffffff;stop-opacity:0.1" />
      <stop offset="100%" style="stop-color:#ffffff;stop-opacity:0.05" />
    </linearGradient>
  </defs>
  
  <!-- Background -->
  <rect width="1024" height="500" fill="url(#bgGradient)"/>
  
  <!-- App Icon -->
  <circle cx="200" cy="250" r="80" fill="white" opacity="0.1"/>
  <circle cx="200" cy="250" r="60" fill="white"/>
  <rect x="170" y="220" width="60" height="8" rx="4" fill="#dc2626"/>
  <rect x="170" y="235" width="60" height="8" rx="4" fill="#1e3a8a"/>
  <rect x="170" y="250" width="60" height="8" rx="4" fill="#dc2626"/>
  <rect x="170" y="265" width="60" height="8" rx="4" fill="#1e3a8a"/>
  <circle cx="185" cy="242" r="3" fill="#fbbf24"/>
  <circle cx="200" cy="242" r="3" fill="#fbbf24"/>
  <circle cx="215" cy="242" r="3" fill="#fbbf24"/>
  
  <!-- Title -->
  <text x="320" y="200" font-family="Arial, sans-serif" font-size="64" font-weight="bold" fill="white">Jits Journal</text>
  <text x="320" y="240" font-family="Arial, sans-serif" font-size="28" fill="white" opacity="0.9">BJJ Training Companion</text>
  
  <!-- Features -->
  <rect x="320" y="280" width="400" height="60" rx="10" fill="url(#cardGradient)" stroke="white" stroke-width="1" opacity="0.3"/>
  <text x="340" y="305" font-family="Arial, sans-serif" font-size="18" font-weight="bold" fill="white">🥋 Track Classes</text>
  <text x="340" y="325" font-family="Arial, sans-serif" font-size="14" fill="white" opacity="0.8">Log training sessions and techniques</text>
  
  <rect x="320" y="360" width="400" height="60" rx="10" fill="url(#cardGradient)" stroke="white" stroke-width="1" opacity="0.3"/>
  <text x="340" y="385" font-family="Arial, sans-serif" font-size="18" font-weight="bold" fill="white">📊 Weekly Goals</text>
  <text x="340" y="405" font-family="Arial, sans-serif" font-size="14" fill="white" opacity="0.8">Set and track your training commitments</text>
  
  <!-- Phone mockup -->
  <rect x="780" y="100" width="180" height="320" rx="20" fill="white" opacity="0.1"/>
  <rect x="790" y="110" width="160" height="300" rx="10" fill="#1e3a8a"/>
  <rect x="800" y="130" width="140" height="80" rx="8" fill="#dc2626"/>
  <text x="810" y="155" font-family="Arial, sans-serif" font-size="14" font-weight="bold" fill="white">Dashboard</text>
  <text x="810" y="175" font-family="Arial, sans-serif" font-size="10" fill="white" opacity="0.8">Weekly Goal: 3/5 classes</text>
  <text x="810" y="190" font-family="Arial, sans-serif" font-size="10" fill="white" opacity="0.8">Next class: Today 7PM</text>
  
  <!-- Bottom elements -->
  <rect x="800" y="230" width="140" height="30" rx="5" fill="white" opacity="0.2"/>
  <rect x="800" y="270" width="140" height="30" rx="5" fill="white" opacity="0.2"/>
  <rect x="800" y="310" width="140" height="30" rx="5" fill="white" opacity="0.2"/>
  <rect x="800" y="350" width="140" height="30" rx="5" fill="white" opacity="0.2"/>
</svg>