<svg width="390" height="844" viewBox="0 0 390 844" xmlns="http://www.w3.org/2000/svg">
  <!-- Background -->
  <rect width="390" height="844" fill="#f8fafc"/>
  
  <!-- Header -->
  <rect width="390" height="80" fill="#1e3a8a"/>
  <text x="20" y="50" fill="white" font-family="Arial, sans-serif" font-size="24" font-weight="bold">Notes</text>
  <rect x="290" y="25" width="80" height="30" rx="8" fill="#dc2626"/>
  <text x="305" y="43" fill="white" font-family="Arial, sans-serif" font-size="12" font-weight="bold">+ New Note</text>
  
  <!-- Search Bar -->
  <rect x="20" y="100" width="350" height="40" rx="8" fill="white" stroke="#e2e8f0" stroke-width="1"/>
  <text x="30" y="125" fill="#9ca3af" font-family="Arial, sans-serif" font-size="14">Search techniques...</text>
  
  <!-- Note Entry 1 -->
  <rect x="20" y="160" width="350" height="120" rx="12" fill="white" stroke="#e2e8f0" stroke-width="1"/>
  <text x="30" y="185" fill="#1e3a8a" font-family="Arial, sans-serif" font-size="16" font-weight="bold">Armbar from Guard</text>
  <text x="30" y="205" fill="#64748b" font-family="Arial, sans-serif" font-size="12">Jan 6, 2025</text>
  <text x="30" y="225" fill="#374151" font-family="Arial, sans-serif" font-size="12">Key points for executing armbar from closed guard:</text>
  <text x="30" y="240" fill="#374151" font-family="Arial, sans-serif" font-size="12">1. Control the wrist and elbow</text>
  <text x="30" y="255" fill="#374151" font-family="Arial, sans-serif" font-size="12">2. Create angle with hip movement</text>
  <text x="30" y="270" fill="#374151" font-family="Arial, sans-serif" font-size="12">3. High guard position for control</text>
  
  <!-- Note Entry 2 with Video -->
  <rect x="20" y="300" width="350" height="150" rx="12" fill="white" stroke="#e2e8f0" stroke-width="1"/>
  <text x="30" y="325" fill="#1e3a8a" font-family="Arial, sans-serif" font-size="16" font-weight="bold">Spider Guard Sweep</text>
  <text x="30" y="345" fill="#64748b" font-family="Arial, sans-serif" font-size="12">Jan 5, 2025</text>
  <text x="30" y="365" fill="#374151" font-family="Arial, sans-serif" font-size="12">Technique demonstration from today's class.</text>
  <text x="30" y="380" fill="#374151" font-family="Arial, sans-serif" font-size="12">Focus on foot placement and grip control.</text>
  
  <!-- Video Thumbnail -->
  <rect x="30" y="390" width="100" height="50" rx="4" fill="#1f2937"/>
  <polygon points="70,405 70,425 85,415" fill="white"/>
  <text x="140" y="410" fill="#64748b" font-family="Arial, sans-serif" font-size="10">Video: Spider Guard Demo</text>
  <text x="140" y="425" fill="#64748b" font-family="Arial, sans-serif" font-size="10">Duration: 2:34</text>
  
  <!-- Note Entry 3 -->
  <rect x="20" y="470" width="350" height="100" rx="12" fill="white" stroke="#e2e8f0" stroke-width="1"/>
  <text x="30" y="495" fill="#1e3a8a" font-family="Arial, sans-serif" font-size="16" font-weight="bold">Collar Choke Setup</text>
  <text x="30" y="515" fill="#64748b" font-family="Arial, sans-serif" font-size="12">Jan 4, 2025</text>
  <text x="30" y="535" fill="#374151" font-family="Arial, sans-serif" font-size="12">Cross collar choke from mount position.</text>
  <text x="30" y="550" fill="#374151" font-family="Arial, sans-serif" font-size="12">Deep grip essential for effectiveness.</text>
  
  <!-- Note Entry 4 -->
  <rect x="20" y="590" width="350" height="100" rx="12" fill="white" stroke="#e2e8f0" stroke-width="1"/>
  <text x="30" y="615" fill="#1e3a8a" font-family="Arial, sans-serif" font-size="16" font-weight="bold">Triangle Choke Details</text>
  <text x="30" y="635" fill="#64748b" font-family="Arial, sans-serif" font-size="12">Jan 3, 2025</text>
  <text x="30" y="655" fill="#374151" font-family="Arial, sans-serif" font-size="12">Angle adjustment crucial for tight finish.</text>
  <text x="30" y="670" fill="#374151" font-family="Arial, sans-serif" font-size="12">Cut the angle, lift the hips.</text>
  
  <!-- Bottom Navigation -->
  <rect x="0" y="764" width="390" height="80" fill="white" stroke="#e2e8f0" stroke-width="1"/>
  <text x="35" y="785" fill="#64748b" font-family="Arial, sans-serif" font-size="10">Home</text>
  <text x="110" y="785" fill="#64748b" font-family="Arial, sans-serif" font-size="10">Classes</text>
  <text x="185" y="785" fill="#dc2626" font-family="Arial, sans-serif" font-size="10" font-weight="bold">Notes</text>
  <text x="260" y="785" fill="#64748b" font-family="Arial, sans-serif" font-size="10">Videos</text>
  <text x="335" y="785" fill="#64748b" font-family="Arial, sans-serif" font-size="10">Social</text>
  
  <circle cx="48" cy="800" r="3" fill="#64748b"/>
  <circle cx="123" cy="800" r="3" fill="#64748b"/>
  <circle cx="198" cy="800" r="3" fill="#dc2626"/>
  <circle cx="273" cy="800" r="3" fill="#64748b"/>
  <circle cx="348" cy="800" r="3" fill="#64748b"/>
</svg>