<svg width="512" height="512" viewBox="0 0 512 512" fill="none" xmlns="http://www.w3.org/2000/svg">
  <rect width="512" height="512" rx="128" fill="#1e3a8a"/>
  <rect x="32" y="32" width="448" height="448" rx="96" fill="#2563eb"/>
  
  <!-- BJJ Belt Design -->
  <rect x="64" y="192" width="384" height="128" rx="64" fill="#ffffff"/>
  <rect x="86" y="214" width="340" height="84" rx="42" fill="#1e3a8a"/>
  
  <!-- Stripes -->
  <rect x="106" y="224" width="20" height="64" rx="10" fill="#dc2626"/>
  <rect x="150" y="224" width="20" height="64" rx="10" fill="#dc2626"/>
  <rect x="194" y="224" width="20" height="64" rx="10" fill="#dc2626"/>
  <rect x="238" y="224" width="20" height="64" rx="10" fill="#dc2626"/>
  
  <!-- Text -->
  <text x="256" y="268" text-anchor="middle" fill="#ffffff" font-family="Arial, sans-serif" font-size="32" font-weight="bold">JITS JOURNAL</text>
  
  <!-- Martial Arts Symbol -->
  <circle cx="256" cy="120" r="32" fill="#dc2626"/>
  <circle cx="256" cy="120" r="24" fill="#ffffff"/>
  <circle cx="256" cy="120" r="16" fill="#dc2626"/>
  <circle cx="256" cy="120" r="8" fill="#ffffff"/>
  
  <!-- Bottom accent -->
  <rect x="160" y="384" width="192" height="12" rx="6" fill="#dc2626"/>
  
  <!-- Side elements -->
  <rect x="48" y="160" width="8" height="192" rx="4" fill="#dc2626"/>
  <rect x="456" y="160" width="8" height="192" rx="4" fill="#dc2626"/>
</svg>